<svg xmlns="http://www.w3.org/2000/svg" viewBox="0 0 72 72" role="img" aria-labelledby="title desc">
  <title id="title">BagWork monogram</title>
  <desc id="desc">Angular BW monogram for BagWork basketball intelligence</desc>
  <defs>
    <linearGradient id="bg" x1="8" y1="5" x2="64" y2="68" gradientUnits="userSpaceOnUse">
      <stop stop-color="#151E48"/>
      <stop offset="0.5" stop-color="#2E55E7"/>
      <stop offset="1" stop-color="#8A3FE0"/>
    </linearGradient>
    <linearGradient id="slash" x1="14" y1="56" x2="61" y2="56" gradientUnits="userSpaceOnUse">
      <stop stop-color="#48E8F2"/>
      <stop offset="1" stop-color="#A8FFCB"/>
    </linearGradient>
  </defs>
  <path d="M14 2h44l12 12v44L58 70H14L2 58V14L14 2Z" fill="url(#bg)"/>
  <path d="M15.7 6h40.6L66 15.7v40.6L56.3 66H15.7L6 56.3V15.7L15.7 6Z" fill="none" stroke="#fff" stroke-opacity=".22" stroke-width="1.5"/>
  <path d="M16 18h15.2c8 0 12.1 3.2 12.1 8.9 0 3.5-1.8 6.2-5.1 7.5 4.5 1.2 6.8 4.2 6.8 8.4C45 49.5 40.2 53 31.6 53H16V18Zm9.1 7v6.4h5.2c2.6 0 4-1.1 4-3.2 0-2.2-1.4-3.2-4-3.2h-5.2Zm0 13.1V46h6.2c3 0 4.5-1.3 4.5-4 0-2.6-1.5-3.9-4.5-3.9h-6.2Z" fill="#fff"/>
  <path d="m42.5 20 4.3 22.3L51.9 27h6.3l2.4 15.3L64 20h5.3l-5.2 33h-7.2l-2.5-14.5L49.5 53h-7.2L36.7 20h5.8Z" fill="#DDE7FF" fill-opacity=".96"/>
  <path d="M13 57h43" stroke="url(#slash)" stroke-width="4" stroke-linecap="round"/>
  <circle cx="59" cy="13" r="4.5" fill="#FF8C42"/>
</svg>
